<?xml version="1.0" encoding="UTF-8"?><svg id="Warstwa_2" xmlns="http://www.w3.org/2000/svg" viewBox="0 0 125.93 126"><defs><style>.cls-1{fill:#fff;}</style></defs><g id="Warstwa_1-2"><path d="M62.96,0C28.24,0,0,28.24,0,62.96c0,14.25,4.89,28.21,13.77,39.32,8.75,10.93,21.02,18.72,34.57,21.94l4.92,1.17v-46.85h-12.84v-10.55h8.84s4.61.02,4.61.02l-.65-4.57c-1.6-11.29.23-20.35,5.31-26.2,4.27-4.91,10.88-7.51,19.14-7.51,3.02,0,6.27.35,9.66,1.03.1.02.38.08.73.16l-.02,8.75c-.78-.04-1.54-.06-2.28-.06-6.82,0-11.72,1.75-14.98,5.36-3.74,4.15-5.05,10.32-4.11,19.44l.37,3.59h18.9l-1.63,10.52-13.67.02h-3.99v47.46l4.51-.59c31.23-4.06,54.77-30.91,54.77-62.45C125.93,28.24,97.68,0,62.96,0ZM70.65,121.44v-38.9l17.09-.02,2.87-18.52h-19.96c-1.5-14.6,3.23-20.39,15.11-20.39,1.9,0,3.99.15,6.27.43l.04-16.28c-.52-.11-3.45-.82-3.95-.92-3.7-.75-7.19-1.11-10.45-1.11-20.34,0-31.84,14.1-28.41,38.27h-12.84s0,18.54,0,18.54h12.84v37.79c-25.96-6.17-45.26-29.51-45.26-57.37C4,30.4,30.39,4,62.96,4s58.97,26.4,58.97,58.96c0,29.97-22.36,54.72-51.28,58.48Z"/><path class="cls-1" d="M121.93,62.96c0,29.97-22.36,54.72-51.28,58.48v-38.9l17.09-.02,2.87-18.52h-19.96c-1.5-14.6,3.23-20.39,15.11-20.39,1.9,0,3.99.15,6.27.43l.04-16.28c-.52-.11-3.45-.82-3.95-.92-3.7-.75-7.19-1.11-10.45-1.11-20.34,0-31.84,14.1-28.41,38.27h-12.84s0,18.54,0,18.54h12.84v37.79c-25.96-6.17-45.26-29.51-45.26-57.37C4,30.4,30.39,4,62.96,4s58.97,26.4,58.97,58.96Z"/></g></svg>