<?xml version="1.0" encoding="UTF-8"?><svg id="Warstwa_1" xmlns="http://www.w3.org/2000/svg" viewBox="0 0 488.85 488.85"><defs><style>.cls-1,.cls-2{fill:#fff;}.cls-2{stroke:#000;}.cls-2,.cls-3,.cls-4{stroke-miterlimit:10;}.cls-5{fill:#51020b;}.cls-3{stroke:#fff;}.cls-3,.cls-4{fill:none;stroke-width:3px;}.cls-4{stroke:#51020b;}.cls-6{fill:#c2001c;}</style></defs><circle class="cls-6" cx="244.43" cy="244.43" r="244.43"/><path class="cls-5" d="M295.66,173.01c-44.48,51.92-110.3,35.41-197.46,59.5v45.98c87.16,24.09,152.98,7.58,197.46,59.5v-59.5s0-45.98,0-45.98v-59.5Z"/><path class="cls-1" d="M289.66,163.01c-44.48,51.92-110.3,35.41-197.46,59.5v45.98c87.16,24.09,152.98,7.58,197.46,59.5v-59.5s0-45.98,0-45.98v-59.5Z"/><path class="cls-2" d="M335.02,163.86c32.57,0,58.98,36.87,58.98,82.34s-26.41,82.34-58.98,82.34"/><path class="cls-2" d="M335.02,163.86c32.57,0,58.98,36.87,58.98,82.34s-26.41,82.34-58.98,82.34"/><path class="cls-4" d="M334.39,165.98c36.48,0,66.06,41.29,66.06,92.22s-29.57,92.22-66.06,92.22"/><path class="cls-4" d="M330.16,154.46c41.04,0,74.31,46.45,74.31,103.75s-33.27,103.75-74.31,103.75"/><path class="cls-4" d="M338.02,175.86c32.57,0,58.98,36.87,58.98,82.34s-26.41,82.34-58.98,82.34"/><path class="cls-3" d="M331.39,153.98c36.48,0,66.06,41.29,66.06,92.22s-29.57,92.22-66.06,92.22"/><path class="cls-3" d="M327.16,142.46c41.04,0,74.31,46.45,74.31,103.75s-33.27,103.75-74.31,103.75"/><path class="cls-3" d="M335.02,163.86c32.57,0,58.98,36.87,58.98,82.34s-26.41,82.34-58.98,82.34"/></svg>