<?xml version="1.0" encoding="UTF-8"?><svg id="Warstwa_2" xmlns="http://www.w3.org/2000/svg" viewBox="0 0 120.63 120.24"><defs><style>.cls-1{fill:#fff;}</style></defs><g id="Warstwa_1-2"><path class="cls-1" d="M33.42.05l53.29-.05c18.57,1.39,32.82,16.43,33.68,34.96.76,16.47-.57,33.5,0,50.02-.77,18.62-14.62,33.52-33.22,35.25h-53.81C15.64,118.95,1.13,104.29,0,86.55v-52.87C1.15,15.96,15.68,1.25,33.42.05ZM101.72,18.52c-4.05-4.05-9.63-6.56-15.33-7.15h-52.39c-11.87,1.03-21.52,10.62-22.63,22.48.13,18.02-.27,36.08.2,54.07,1.83,11.91,12.26,20.92,24.33,21.11,16.05-.58,32.62.75,48.61,0,13.46-.63,23.85-10.48,24.53-24.06-.64-16.39.82-33.39,0-49.71-.32-6.27-2.88-12.3-7.32-16.74Z"/><path class="cls-1" d="M90.28,60.13c0,16.37-13.27,29.64-29.64,29.64s-29.64-13.27-29.64-29.64,13.27-29.64,29.64-29.64,29.64,13.27,29.64,29.64ZM79.61,60.13c0-10.48-8.49-18.97-18.97-18.97s-18.97,8.49-18.97,18.97,8.49,18.97,18.97,18.97,18.97-8.49,18.97-18.97Z"/><circle class="cls-1" cx="92.02" cy="28.51" r="7.06"/></g></svg>