<?xml version="1.0" encoding="UTF-8"?><svg id="Warstwa_2" xmlns="http://www.w3.org/2000/svg" viewBox="0 0 1131.36 383.69"><g id="Warstwa_1-2"><path d="M443.1,163.62c-17.86,0-33.47-5.13-52.19-17.15l-.46-.3v-29.5l1.63,1.32c18.62,15.09,36.48,22.73,53.09,22.73,17.57,0,32.98-11.87,32.98-25.4,0-10.16-5.88-18.37-34.59-25.43-18.48-4.47-52.87-12.8-52.87-43.9,0-27.51,22.82-46,56.79-46,15.72,0,29.29,3.76,46.84,12.97l.54.28v29.16l-1.65-1.39c-14.34-12.13-30.5-18.82-45.5-18.82-17.46,0-31.14,9.34-31.14,21.27,0,11.24,8.99,17.29,34.35,23.13,18.09,4.17,30.44,9.23,38.88,15.92,9.58,7.59,14.24,17.5,14.24,30.28,0,28.97-26.19,50.82-60.92,50.82Z"/><path d="M559.72,163.62c-21.44,0-38.88-15.79-38.88-35.21,0-7.47,2.31-13.97,6.69-18.81,9.09-9.77,21.52-15.53,63.98-19.75-.78-12.62-13.09-19.22-25.13-19.22-11.27,0-22.85,5.18-35.4,15.83l-1.65,1.4v-25.47l.5-.29c14.68-8.39,27.61-12.3,40.67-12.3,28.68,0,44.16,20.74,44.16,40.26v45c0,4.67,1.98,7.04,5.89,7.04,1.35,0,3.53-.16,6.97-1.54l1.37-.55v19.71l-2.63.66c-4.56,1.16-8.16,2.08-13.75,2.08-12.63,0-19.55-5.69-20.61-16.93-8.31,12.16-18.86,18.08-32.19,18.08ZM576.85,110.58c-23.68,3.48-31.28,7.71-31.28,17.38s9.37,15.53,18.05,15.53c16.24,0,27.11-13.71,27.89-35.03l-14.66,2.12Z"/><path d="M776.81,161.09v-67.12c0-14.25-5.83-22.42-15.99-22.42-13.86,0-24.71,16.4-24.71,37.34v52.19h-23.12v-67.8c0-13.6-5.98-21.73-15.99-21.73-14.09,0-24.71,16.45-24.71,38.26v51.28h-23.12V52.34h21.42l1.42,14.22c8.29-11.71,17.75-16.75,31.19-16.75,14.62,0,24.95,7.13,30,20.65,6.74-12.98,18.96-20.65,33.13-20.65,19.78,0,33.6,15.14,33.6,36.81v74.46h-23.12Z"/><path d="M872.39,163.62c-22.43,0-37.5-15.81-37.5-39.34V52.34h23.12v65.74c0,14.9,7.26,23.79,19.43,23.79,18.59,0,28.61-19.36,28.61-37.57v-51.96h23.12v108.75h-21.44l-1.26-16.43c-8.11,12.58-19.57,18.95-34.08,18.95Z"/><path d="M1013.35,163.62c-15.56,0-29.8-5.99-40.1-16.87-10.02-10.59-15.54-24.84-15.54-40.14,0-31.31,24.55-56.79,54.72-56.79,13.46,0,25.77,4.92,34.66,13.87,9.67,9.73,14.78,23.54,14.78,39.93v3.75h-79.37c1.64,23.22,19.16,33.81,34.98,33.81s30.03-10.7,39.01-19.68l1.71-1.71v28.65l-.43.3c-14.26,10.01-28.79,14.87-44.42,14.87ZM1034.9,88.38c-2.41-13.2-12.91-19.12-22.47-19.12-11.81,0-21.49,6.95-26.74,19.12h49.21Z"/><rect x="1088.11" y="2.53" width="23.12" height="158.57"/><path d="M536.72,377.18c-17.86,0-33.47-5.13-52.19-17.15l-.46-.3v-29.5l1.63,1.32c18.62,15.09,36.48,22.73,53.09,22.73,17.57,0,32.98-11.87,32.98-25.4,0-10.16-5.88-18.37-34.59-25.43-18.48-4.47-52.87-12.8-52.87-43.9,0-27.51,22.82-46,56.79-46,15.72,0,29.29,3.76,46.84,12.97l.54.28v29.16l-1.65-1.39c-14.34-12.13-30.5-18.82-45.5-18.82-17.46,0-31.14,9.34-31.14,21.27,0,11.24,8.99,17.29,34.35,23.13,18.09,4.17,30.44,9.23,38.88,15.92,9.58,7.59,14.24,17.5,14.24,30.28,0,28.97-26.19,50.82-60.92,50.82Z"/><path d="M660.08,377.18c-20.16,0-30.38-9.3-30.38-27.63v-63.74h-17.91v-19.91h17.97l2.07-31.91h20.99v31.91h28.93v19.91h-28.93v57.08c0,8.66,4.89,13.23,14.15,13.23,4.46,0,8.19-1,13.33-3.57l1.45-.72v21.39l-.68.23c-7.35,2.53-12.36,3.73-20.99,3.73Z"/><path d="M745.27,377.18c-22.43,0-37.5-15.81-37.5-39.34v-71.94h23.12v65.74c0,14.9,7.26,23.79,19.43,23.79,18.59,0,28.61-19.36,28.61-37.57v-51.96h23.12v108.75h-21.44l-1.26-16.43c-8.11,12.58-19.57,18.95-34.08,18.95Z"/><path d="M873.11,377.18c-13.18,0-25.35-5.7-34.27-16.04-8.89-10.31-13.79-24.37-13.79-39.59s5.44-30.63,15.32-41.56c9.68-10.7,22.45-16.6,35.95-16.6,10.64,0,19.38,3.16,30.68,11.21v-58.5h23.12v158.57h-21.44l-1.27-16.5c-8.38,12.46-20.2,19.03-34.31,19.03ZM879.08,285.12c-16.98,0-29.3,14.74-29.3,35.04s12.01,35.27,27.93,35.27,29.3-15.69,29.3-35.73v-20.94c-8.79-8.93-18.44-13.64-27.93-13.64Z"/><path d="M966.45,374.66v-108.75h23.12v108.75h-23.12ZM978.01,246.56c-8.78,0-12.71-7.65-12.71-15.23,0-8.97,5.01-15,12.48-15s12.94,6.03,12.94,15-5.34,15.23-12.71,15.23Z"/><path d="M1075.72,377.18c-32.5,0-57.02-24.51-57.02-57.01s24.31-56.79,56.56-56.79,56.1,24.94,56.1,56.79-24.96,57.01-55.64,57.01ZM1075.03,284.21c-17.42,0-31.6,16.24-31.6,36.19s13.87,35.96,30.91,35.96c18.1,0,32.29-15.9,32.29-36.19,0-17.68-11.82-35.96-31.6-35.96Z"/><path d="M376.42,383.68h-30.51c-.38-4.29-.66-8.5-1.14-12.68-2.27-19.77-9.26-37.8-20.24-54.33-11.52-17.34-26.23-31.67-42.4-44.58-20.73-16.55-43.21-30.48-66.22-43.58-26.12-14.88-52.45-29.4-78.52-44.36-22.62-12.98-44.52-27.09-64.8-43.57-18.86-15.32-35.74-32.47-48.75-53.17C10.04,65.43,2.13,41.53.45,15.6c-.21-3.14-.3-6.29-.45-9.56h30.59c.26,3.68.46,7.35.78,11,1.79,20.18,8.49,38.65,19.47,55.61,11,16.96,24.98,31.22,40.74,43.68,9.82,7.77,20.2,14.83,30.33,22.2.42.31.89.55,1.63.99.17-18.11,6.27-33.7,18.96-46.42,12.68-12.72,28.22-18.83,46.49-19.1-10.13-21.54-16.2-43.92-16.08-67.9h30.59c.16,3.13.28,6.33.51,9.54,1.04,14.16,4.98,27.58,10.64,40.54,6.79,15.54,15.37,30.08,25.44,43.67,18.12,24.42,36.65,48.54,54.91,72.87,17.33,23.08,33.36,47,46.56,72.73,14.42,28.1,24.85,57.55,30.34,88.7,2.78,15.75,4.29,31.63,4.5,47.63,0,.59,0,1.17,0,1.92h0ZM188.16,172.68c18.81.02,34.09-15.17,34.1-33.89,0-18.69-15.12-33.9-33.79-34-18.78-.1-34.14,15.08-34.2,33.79-.06,18.76,15.17,34.08,33.89,34.09ZM219.75,195.28c32.92,18.7,65.07,37.85,93.52,62.61-17.65-34.37-40.95-64.88-64.77-95.47-5.88,14.29-15.36,25.09-28.75,32.86h0Z"/></g></svg>