<?xml version="1.0" encoding="UTF-8"?><svg id="Warstwa_2" xmlns="http://www.w3.org/2000/svg" viewBox="0 0 2140.68 377.65"><g id="Warstwa_1-2"><path d="M2064.78,264.72c-41.85,0-75.9-34.05-75.9-75.9s34.05-75.9,75.9-75.9,75.9,34.05,75.9,75.9-34.05,75.9-75.9,75.9ZM2064.78,141.01c-26.36,0-47.81,21.45-47.81,47.81s21.45,47.82,47.81,47.82,47.81-21.45,47.81-47.82-21.45-47.81-47.81-47.81Z"/><rect x="1934.03" y="113.45" width="28.51" height="150.24"/><path d="M1780.38,264.72V113.92h60.88c17.36,0,33.86,8.35,46.45,23.5,11.96,14.39,18.94,33.31,19.17,51.91-.22,18.58-7.21,37.5-19.17,51.89-12.6,15.16-29.09,23.5-46.45,23.5h-60.88ZM1808.06,237.38h27.55c11.11,0,21.11-4.19,28.94-12.11,8.96-9.07,14.21-22.51,14.05-35.96.16-13.42-5.09-26.87-14.05-35.94-7.83-7.92-17.83-12.11-28.94-12.11h-27.55v96.11Z"/><polygon points="1519.03 263.99 1519.03 141.99 1468.03 141.99 1468.03 113.46 1602.03 113.46 1602.03 141.99 1547.28 141.99 1547.28 263.99 1519.03 263.99"/><polygon points="1207.69 263.15 1207.69 114.46 1235.85 114.46 1235.85 235.97 1295.61 236.01 1295.61 263.19 1207.69 263.15"/><polygon points="1087.96 263.17 1087.96 114.5 1180.96 114.5 1180.96 141.01 1116.47 141.01 1116.47 175.5 1179.96 175.5 1179.96 202.5 1116.47 202.5 1116.47 235.66 1180.96 235.66 1180.96 263.17 1087.96 263.17"/><path d="M1688.03,263.17c-30.34,0-63-16.32-63-52.17v-96.5h28.51v92.5c0,21.24,17.88,30.91,34.49,30.91s34.49-9.67,34.49-30.91v-92.5h28.51v96.5c0,35.84-32.66,52.17-63,52.17Z"/><path d="M997.83,263.17c-30.34,0-63-16.32-63-52.17v-96.5h28.51v92.5c0,21.24,17.88,30.91,34.49,30.91s34.49-9.67,34.49-30.91v-92.5h28.51v96.5c0,35.84-32.66,52.17-63,52.17Z"/><polygon points="878.87 263.17 878.87 183.65 876.94 183.29 845.72 263.17 826.01 263.17 794.79 183.29 792.86 183.65 792.86 263.17 764.35 263.17 764.35 114.5 793.17 114.5 835.86 224.26 878.56 114.5 907.38 114.5 907.38 263.17 878.87 263.17"/><path d="M708.57,263.17l-3.96-12.97.39-.2-5.18-16.05h-63.57l-8.93,29.22h-28.74l51.05-148.67h36.64l51.05,148.67h-28.74ZM645.5,205.44h45.11l-22.67-70.21-22.44,70.21Z"/><path d="M511.4,263.5c-6.33,0-12.64-.45-18.75-1.35-17.05-2.49-32.01-10.68-40.03-21.91-5.5-7.7-7.5-16.34-5.94-25.7h29.37c.76,17.77,19.44,24.11,35.46,24.12h0c8.67,0,17.08-1.8,23.06-4.95,7.24-3.8,11.46-9.91,11.01-15.95-.42-5.69-4.84-10.42-12.13-12.98-7.58-2.66-17.3-3.86-27.59-5.13-24.11-2.98-51.43-6.35-57.12-30.29-3.01-12.67-.82-23.81,6.53-33.1,10.62-13.44,31.79-21.8,55.23-21.8,20.79,0,39.68,6.76,50.53,18.09,7.61,7.94,11.33,17.8,11.05,29.3h-30.66c.05-4.86-1.62-9.12-4.98-12.69-5.59-5.94-15.7-9.48-27.06-9.48s-21.39,3.62-26.22,9.45c-2.94,3.54-3.98,7.72-3.09,12.4,1.91,10.1,24.93,12.76,41.73,14.7,4.37.5,8.15.94,10.5,1.42,21.7,4.46,42.12,11.75,44.58,34.68,1.39,12.99-1.72,23.82-9.24,32.19-10.84,12.06-31.33,18.97-56.23,18.97Z"/><path d="M1384.47,263.84c-6.33,0-12.64-.45-18.75-1.35-17.05-2.49-32.01-10.68-40.03-21.91-5.5-7.7-7.5-16.34-5.94-25.7h29.37c.76,17.77,19.44,24.11,35.46,24.12h0c8.67,0,17.08-1.8,23.06-4.95,7.24-3.8,11.46-9.91,11.01-15.95-.42-5.69-4.84-10.42-12.13-12.98-7.58-2.66-17.3-3.86-27.59-5.13-24.11-2.98-51.43-6.35-57.12-30.29-3.01-12.67-.82-23.81,6.53-33.1,10.62-13.44,31.79-21.8,55.23-21.8,20.79,0,39.68,6.76,50.53,18.09,7.61,7.94,11.33,17.8,11.05,29.3h-30.66c.05-4.86-1.62-9.12-4.98-12.69-5.59-5.94-15.7-9.48-27.06-9.48s-21.39,3.62-26.22,9.45c-2.94,3.54-3.98,7.72-3.09,12.4,1.91,10.1,24.93,12.76,41.73,14.7,4.37.5,8.15.94,10.5,1.42,21.7,4.46,42.12,11.75,44.58,34.68,1.39,12.99-1.72,23.82-9.24,32.19-10.84,12.06-31.33,18.97-56.23,18.97Z"/><path d="M376.42,377.64h-30.51c-.38-4.29-.66-8.5-1.14-12.68-2.27-19.77-9.26-37.8-20.24-54.33-11.52-17.34-26.23-31.67-42.4-44.58-20.73-16.55-43.21-30.48-66.22-43.58-26.12-14.88-52.45-29.4-78.52-44.36-22.62-12.98-44.52-27.09-64.8-43.57-18.86-15.32-35.74-32.47-48.75-53.17C10.04,59.39,2.13,35.49.45,9.56.25,6.41.15,3.27,0,0h30.59c.26,3.68.46,7.35.78,11,1.79,20.18,8.49,38.65,19.47,55.61,11,16.96,24.98,31.22,40.74,43.68,9.82,7.77,20.2,14.83,30.33,22.2.42.31.89.55,1.63.99.17-18.11,6.27-33.7,18.96-46.42,12.68-12.72,28.22-18.83,46.49-19.1C178.87,46.4,172.8,24.03,172.91.05h30.59c.16,3.13.28,6.33.51,9.54,1.04,14.16,4.98,27.58,10.64,40.54,6.79,15.54,15.37,30.08,25.44,43.67,18.12,24.42,36.65,48.54,54.91,72.87,17.33,23.08,33.36,47,46.56,72.73,14.42,28.1,24.85,57.55,30.34,88.7,2.78,15.75,4.29,31.63,4.5,47.63,0,.59,0,1.17,0,1.92h0ZM188.16,166.64c18.81.02,34.09-15.17,34.1-33.89,0-18.69-15.12-33.9-33.79-34-18.78-.1-34.14,15.08-34.2,33.79-.06,18.76,15.17,34.08,33.89,34.09ZM219.75,189.24c32.92,18.7,65.07,37.85,93.52,62.61-17.65-34.37-40.95-64.88-64.77-95.47-5.88,14.29-15.36,25.09-28.75,32.86h0Z"/></g></svg>