<?xml version="1.0" encoding="UTF-8"?><svg id="Warstwa_2" xmlns="http://www.w3.org/2000/svg" viewBox="0 0 1118.2 387.69"><g id="Warstwa_1-2"><path d="M376.42,387.69h-30.51c-.38-4.29-.66-8.5-1.14-12.68-2.27-19.77-9.26-37.8-20.24-54.33-11.52-17.34-26.23-31.67-42.4-44.58-20.73-16.55-43.21-30.48-66.22-43.58-26.12-14.88-52.45-29.4-78.52-44.36-22.62-12.98-44.52-27.09-64.8-43.57-18.86-15.32-35.74-32.47-48.75-53.17C10.04,69.44,2.13,45.53.45,19.6c-.21-3.14-.3-6.29-.45-9.56h30.59c.26,3.68.46,7.35.78,11,1.79,20.18,8.49,38.65,19.47,55.61,11,16.96,24.98,31.22,40.74,43.68,9.82,7.77,20.2,14.83,30.33,22.2.42.31.89.55,1.63.99.17-18.11,6.27-33.7,18.96-46.42,12.68-12.72,28.22-18.83,46.49-19.1-10.13-21.54-16.2-43.92-16.08-67.9h30.59c.16,3.13.28,6.33.51,9.54,1.04,14.16,4.98,27.58,10.64,40.54,6.79,15.54,15.37,30.08,25.44,43.67,18.12,24.42,36.65,48.54,54.91,72.87,17.33,23.08,33.36,47,46.56,72.73,14.42,28.1,24.85,57.55,30.34,88.7,2.78,15.75,4.29,31.63,4.5,47.63,0,.59,0,1.17,0,1.92h0ZM188.16,176.68c18.81.02,34.09-15.17,34.1-33.89,0-18.69-15.12-33.9-33.79-34-18.78-.1-34.14,15.08-34.2,33.79-.06,18.76,15.17,34.08,33.89,34.09ZM219.75,199.28c32.92,18.7,65.07,37.85,93.52,62.61-17.65-34.37-40.95-64.88-64.77-95.47-5.88,14.29-15.36,25.09-28.75,32.86h0Z"/><path d="M511.22,13.54v32.14c-19.28-14.69-33.06-19.51-47.75-19.51-16.76,0-28.24,8.95-28.24,19.05s8.03,14.92,33.52,20.66c33.29,7.35,51.88,19.05,51.88,43.85,0,30.3-27.55,51.88-63.36,51.88-19.05,0-35.81-5.74-53.26-16.99v-33.06c21.81,17.68,37.65,23.88,53.49,23.88,17.68,0,31.22-11.02,31.22-23.42s-10.56-18.14-31.45-22.5c-32.6-6.89-53.26-18.14-53.26-45S429.04,0,462.78,0c17.45,0,33.75,4.82,48.44,13.54Z"/><path d="M630.37,91.14v30.53c0,14.69,3.44,27.09,9.64,37.42h-33.29c-2.53-4.59-3.44-7.58-4.13-13.77-9.41,11.71-20.2,16.3-33.29,16.3-22.5,0-38.8-15.84-38.8-34.44,0-7.35,2.07-13.31,6.2-18.14,8.04-9.41,22.04-14.23,56.93-19.51l7.58-1.15c-2.07-9.41-12.4-15.15-23.65-15.15-10.56,0-21.58,3.21-36.5,13.08v-25.94c13.09-6.43,26.86-10.56,41.55-10.56,30.99,0,47.75,18.14,47.75,41.32ZM575.5,139.12c13.77,0,25.94-12.17,28.47-30.76-31.22,4.13-43.85,7.8-43.85,18.82,0,8.04,7.35,11.94,15.38,11.94Z"/><path d="M748.36,70.94c8.04-14,19.05-21.12,32.83-21.12,21.35,0,33.75,16.3,33.75,36.5v72.77h-28.47v-66.35c0-6.43-4.59-14.23-12.63-14.23-13.31,0-22.73,16.07-22.73,33.52v47.06h-28.47v-63.82c0-9.18-4.59-16.53-12.63-16.53-13.09,0-22.73,16.3-22.73,35.12v45.22h-28.47V52.34h26.63l1.61,16.53h.46c7.12-12.17,17.22-19.05,30.76-19.05,14.69,0,24.56,7.35,30.07,21.12Z"/><path d="M868.66,52.34v62.67c0,11.94,6.2,19.28,16.53,19.28,14.69,0,26.17-17.91,26.17-33.06v-48.9h28.47v106.75h-26.86c0-5.28-.92-12.17-1.61-15.84-9.87,12.63-20.66,18.37-33.75,18.37-24.79,0-37.42-17.68-37.42-43.62V52.34h28.47Z"/><path d="M1069.07,105.6v3.9h-78.97c4.59,17.91,19.05,25.94,32.6,25.94,15.61,0,29.38-7.58,42.24-17.68v29.16c-18.37,10.1-33.06,14.69-46.83,14.69-33.75,0-57.62-25.94-57.62-55.56s23.65-56.24,55.56-56.24,53.03,21.58,53.03,55.79ZM1038.31,89.99c-1.84-12.17-12.17-18.82-21.35-18.82-10.79,0-20.66,7.12-24.33,18.82h45.68Z"/><path d="M1118.2,2.53v156.57h-28.47V2.53h28.47Z"/><path d="M587.9,226.94v32.14c-19.28-14.69-33.06-19.51-47.75-19.51-16.76,0-28.24,8.95-28.24,19.05s8.03,14.92,33.52,20.66c33.29,7.35,51.88,19.05,51.88,43.85,0,30.3-27.55,51.88-63.36,51.88-19.05,0-35.81-5.74-53.26-16.99v-33.06c21.81,17.68,37.65,23.88,53.49,23.88,17.68,0,31.22-11.02,31.22-23.42s-10.56-18.14-31.45-22.5c-32.6-6.89-53.26-18.14-53.26-45s25.02-44.54,58.77-44.54c17.45,0,33.75,4.82,48.44,13.54Z"/><path d="M645.75,233.83v32.14h29.84v21.35h-28.93v47.29c0,10.33,5.97,14.23,13.54,14.23,5.74,0,10.79-1.84,15.38-3.67v25.25c-8.49,2.53-17.22,3.67-25.71,3.67-20.2,0-31.68-10.79-31.68-30.07v-56.7h-17.68v-21.35h18.82l3.44-32.14h22.96Z"/><path d="M720.59,265.74v62.67c0,11.94,6.2,19.28,16.53,19.28,14.69,0,26.17-17.91,26.17-33.06v-48.9h28.47v106.75h-26.86c0-5.28-.92-12.17-1.61-15.84-9.87,12.63-20.66,18.37-33.75,18.37-24.79,0-37.42-17.68-37.42-43.62v-65.66h28.47Z"/><path d="M922.84,215.92v156.57h-26.63l-1.61-18.14h-.46c-8.26,13.08-19.05,20.66-33.98,20.66-24.33,0-47.75-22.04-47.75-54.18s22.5-57.62,51.19-57.62c11.94,0,21.58,4.36,30.76,12.17v-59.46h28.47ZM867.05,347.23c15.15,0,27.32-14.23,27.32-34.89v-12.86c-6.66-6.66-14.92-11.02-24.79-11.02-16.76,0-27.32,13.09-27.32,30.3,0,16.07,11.25,28.47,24.79,28.47Z"/><path d="M982.07,230.38c0,9.18-7.58,16.76-16.76,16.76-9.87,0-16.76-7.8-16.76-16.76,0-9.41,8.03-16.76,16.07-16.76s17.45,6.66,17.45,16.76ZM979.54,265.74v106.75h-28.47v-106.75h28.47Z"/><path d="M1118.2,319.22c0,30.3-24.56,55.79-59,55.79s-58.31-24.1-58.31-55.56,26.17-56.24,57.16-56.24c36.27,0,60.15,25.48,60.15,56.01ZM1060.12,349.76c15.84,0,27.55-14.69,27.55-30.3s-11.02-30.99-27.55-30.99-28.7,13.09-28.7,30.53,13.31,30.76,28.7,30.76Z"/></g></svg>