<?xml version="1.0" encoding="UTF-8"?><svg id="Warstwa_2" xmlns="http://www.w3.org/2000/svg" viewBox="0 0 1112.07 375.69"><g id="Warstwa_1-2"><path d="M345.54,375.69c-.04-.47-.08-.94-.12-1.41-.23-2.82-.47-5.74-.8-8.62-2.25-19.62-9.22-38.34-20.72-55.65-10.54-15.86-24.21-30.24-43.03-45.27-22.89-18.28-47.62-33.03-66.6-43.84-11.73-6.68-23.69-13.4-35.27-19.9-14.2-7.97-28.89-16.22-43.24-24.46-25.83-14.82-46.29-28.58-64.4-43.29-20.81-16.9-36.54-34.06-48.1-52.44C9.66,59.19,1.94,35.5.31,10.41.18,8.33.09,6.27,0,4.1c0-.02,0-.03,0-.05h24.65c.01.16.02.33.03.49.17,2.54.34,5.17.57,7.77,1.78,20.13,8.49,39.3,19.94,56.98,10.45,16.12,23.99,30.64,41.39,44.41,6.88,5.45,14.13,10.61,21.14,15.61,3.1,2.21,6.21,4.42,9.29,6.66.4.29.81.53,1.24.78.18.1.38.22.61.36l4.49,2.69.05-5.24c.16-17.54,6.25-32.46,18.09-44.33,11.96-12,26.49-17.96,44.41-18.22l4.65-.07-1.98-4.21c-10.25-21.8-15.43-42.65-15.78-63.62h24.71c.1,2.21.21,4.48.38,6.76.99,13.44,4.55,27.02,10.88,41.52,6.69,15.31,15.36,30.2,25.78,44.25,10.89,14.68,22.11,29.48,32.96,43.81,7.21,9.52,14.67,19.36,21.96,29.07,19.82,26.4,34.53,49.38,46.29,72.3,14.73,28.7,24.84,58.25,30.06,87.85,2.68,15.21,4.17,30.69,4.44,46.03h-24.73ZM215.82,193.28c31.1,17.67,63.79,37.02,92.34,61.87l4.64-3.63c-17.28-33.66-39.7-63.36-65.07-95.94l-3.18-4.08-1.97,4.78c-5.62,13.66-14.61,23.94-27.48,31.4l-9.64,5.59h10.36ZM185.16,96.79c-20.35,0-36.96,16.5-37.02,36.78-.03,9.89,3.81,19.2,10.8,26.23,6.98,7.01,16.24,10.87,26.08,10.88,20.47,0,37.1-16.55,37.1-36.89,0-20.3-16.49-36.9-36.78-37h-.19Z"/><path d="M454.14,155.62c-17.29,0-33.3-4.97-50.26-15.63v-25.23c18.93,14.46,34.27,20.69,50.49,20.69,18.87,0,34.22-11.85,34.22-26.42,0-16.19-17.1-21.94-33.84-25.43-36.13-7.63-50.87-19.82-50.87-42.06,0-24.46,22.93-41.54,55.77-41.54,15.91,0,31.19,4.13,45.44,12.27v24.48c-16.47-11.72-29.74-16.57-44.75-16.57-17.52,0-31.24,9.69-31.24,22.05,0,13.11,12.08,18.23,35.86,23.59,35.19,7.77,49.54,19.62,49.54,40.92,0,13.62-6.09,26.04-17.14,34.97-11.1,8.97-26.45,13.91-43.22,13.91Z"/><path d="M566.17,155.62c-20.07,0-35.8-13.81-35.8-31.44,0-6.59,1.79-11.88,5.48-16.18,7.45-8.73,21.35-13.39,55.1-18.5l10.74-1.63-.69-3.13c-2.26-10.31-13.19-17.51-26.58-17.51-10.83,0-21.33,3.31-33.5,10.64v-18.61c13.42-6.35,26.05-9.44,38.55-9.44,27.18,0,44.75,15.04,44.75,38.32v30.53c0,12.76,2.55,24.31,7.58,34.42h-26.42c-1.73-3.45-2.4-6.07-2.96-11.11l-.8-7.17-4.52,5.62c-8.44,10.5-17.98,15.18-30.95,15.18ZM600.44,102.38c-28.9,3.83-46.45,7.2-46.45,21.8,0,8.93,7.39,14.94,18.38,14.94,15.84,0,28.77-13.72,31.44-33.36l.53-3.89-3.9.52Z"/><path d="M786.34,153.09v-63.35c0-8.29-5.97-17.23-15.63-17.23-16.1,0-25.73,18.57-25.73,36.52v44.06h-22.47v-60.82c0-11.5-6.43-19.53-15.63-19.53-14.43,0-25.73,16.75-25.73,38.12v42.22h-22.47V52.34h20.91l1.61,16.53h4.9l.87-1.49c6.91-11.82,16.13-17.57,28.17-17.57,13.19,0,22.11,6.29,27.29,19.23l2.3,5.76,3.09-5.38c7.47-13.01,17.64-19.61,30.23-19.61,21.24,0,30.75,16.83,30.75,33.5v69.77h-22.47Z"/><path d="M874.48,155.62c-21.87,0-34.42-14.8-34.42-40.62v-62.66h22.47v59.67c0,13.75,7.48,22.28,19.53,22.28,16.43,0,29.17-19.38,29.17-36.06v-45.9h22.47v100.75h-20.94c-.23-4.64-.93-9.91-1.58-13.39l-1.22-6.52-4.09,5.23c-9.18,11.74-19.15,17.21-31.38,17.21Z"/><path d="M1014.97,155.62c-30.63,0-54.62-23.08-54.62-52.56s23.58-53.24,52.56-53.24,50.03,21.21,50.03,52.79v.9h-79.84l.96,3.75c5.34,20.81,22.46,28.2,35.5,28.2s25.3-4.68,39.24-14.67v21.37c-17.06,9.19-31.02,13.47-43.83,13.47ZM1013.83,65.17c-12.53,0-23.21,8.21-27.2,20.93l-1.22,3.9h53.26l-.52-3.45c-2.1-13.88-14.09-21.38-24.32-21.38Z"/><rect x="1089.6" y="2.53" width="22.47" height="150.57"/><path d="M530.82,369.01c-17.29,0-33.3-4.97-50.26-15.63v-25.23c18.93,14.46,34.27,20.69,50.49,20.69,18.87,0,34.22-11.85,34.22-26.42,0-16.19-17.1-21.94-33.84-25.43-36.13-7.63-50.87-19.82-50.87-42.06,0-24.46,22.93-41.54,55.77-41.54,15.91,0,31.19,4.13,45.44,12.27v24.48c-16.47-11.72-29.74-16.57-44.75-16.57-17.52,0-31.24,9.69-31.24,22.05,0,13.11,12.08,18.23,35.86,23.59,35.19,7.77,49.54,19.62,49.54,40.92,0,13.62-6.09,26.04-17.14,34.97-11.1,8.97-26.45,13.91-43.22,13.91Z"/><path d="M646.75,368.09c-18.49,0-28.68-9.62-28.68-27.07v-59.7h-17.68v-15.35h18.52l3.44-32.14h17.26v32.14h29.84v15.35h-28.93v50.29c0,10.79,6.18,17.23,16.54,17.23,4.55,0,8.61-1.02,12.38-2.33v18.64c-7.28,1.95-14.91,2.94-22.71,2.94Z"/><path d="M726.41,369.01c-21.87,0-34.42-14.8-34.42-40.62v-62.66h22.47v59.67c0,13.75,7.48,22.28,19.53,22.28,16.43,0,29.17-19.38,29.17-36.06v-45.9h22.47v100.75h-20.94c-.23-4.64-.93-9.91-1.58-13.39l-1.22-6.52-4.09,5.23c-9.18,11.74-19.15,17.21-31.38,17.21Z"/><path d="M857.03,369.01c-21.52,0-44.75-19.57-44.75-51.18s21.62-54.62,48.19-54.62c10.47,0,19.63,3.64,28.82,11.45l4.94,4.2v-62.95h22.47v150.57h-20.88l-1.61-18.14h-4.86l-.88,1.4c-8.19,12.96-18.47,19.26-31.44,19.26ZM866.44,282.46c-17.85,0-30.32,13.7-30.32,33.3,0,17.35,12.47,31.47,27.79,31.47,17.28,0,30.32-16.29,30.32-37.89v-14.1l-.88-.88c-7.9-7.9-16.95-11.9-26.91-11.9Z"/><path d="M950.94,366.48v-100.75h22.47v100.75h-22.47ZM962.17,241.14c-7.71,0-13.76-6.04-13.76-13.76s6.9-13.76,13.07-13.76c6.83,0,14.45,5.65,14.45,13.76,0,7.59-6.17,13.76-13.76,13.76Z"/><path d="M1056.07,369.01c-31.53,0-55.31-22.59-55.31-52.56s24.3-53.24,54.16-53.24c16.37,0,31.14,5.58,41.59,15.71,10.03,9.73,15.56,22.98,15.56,37.3,0,29.6-24.6,52.79-56,52.79ZM1056.99,282.46c-17.77,0-31.7,14.73-31.7,33.53s13.92,33.76,31.7,33.76c16.56,0,30.55-15.25,30.55-33.3,0-16.35-11.68-33.99-30.55-33.99Z"/></g></svg>