<?xml version="1.0" encoding="UTF-8"?><svg id="Warstwa_2" xmlns="http://www.w3.org/2000/svg" viewBox="0 0 1334.84 377.65"><g id="Warstwa_1-2"><path d="M1258.94,361.71c-41.85,0-75.9-34.05-75.9-75.9s34.05-75.9,75.9-75.9,75.9,34.05,75.9,75.9-34.05,75.9-75.9,75.9ZM1258.94,238c-26.36,0-47.81,21.45-47.81,47.81s21.45,47.82,47.81,47.82,47.81-21.45,47.81-47.82-21.45-47.81-47.81-47.81Z"/><rect x="1127.19" y="210.44" width="28.51" height="150.24"/><path d="M973.53,361.71v-150.8h60.88c17.36,0,33.86,8.35,46.45,23.5,11.96,14.39,18.94,33.31,19.17,51.91-.22,18.58-7.21,37.5-19.17,51.89-12.6,15.16-29.09,23.5-46.45,23.5h-60.88ZM1001.22,334.37h27.55c11.11,0,21.11-4.19,28.94-12.11,8.96-9.07,14.21-22.51,14.05-35.96.16-13.42-5.09-26.87-14.05-35.94-7.83-7.92-17.83-12.11-28.94-12.11h-27.55v96.11Z"/><path d="M875.09,360.98c-34.63,0-71.91-16.98-71.91-54.26v-96.5h28.51v92.5c0,20.79,22.5,30.26,43.4,30.26s43.4-9.47,43.4-30.26v-92.5h28.51v96.5c0,37.28-37.27,54.26-71.91,54.26Z"/><polygon points="691.19 360.98 691.19 238.98 640.19 238.98 640.19 210.45 774.19 210.45 774.19 238.98 719.44 238.98 719.44 360.98 691.19 360.98"/><polygon points="1246.92 159.63 1246.92 10.94 1275.08 10.94 1275.08 132.45 1334.84 132.49 1334.84 159.67 1246.92 159.63"/><polygon points="1127.19 159.65 1127.19 10.98 1220.19 10.98 1220.19 37.49 1155.7 37.49 1155.7 71.98 1219.19 71.98 1219.19 98.98 1155.7 98.98 1155.7 132.14 1220.19 132.14 1220.19 159.65 1127.19 159.65"/><path d="M1036.19,159.65c-30.34,0-63-16.32-63-52.17V10.98h28.51v92.5c0,21.24,17.88,30.91,34.49,30.91s34.49-9.67,34.49-30.91V10.98h28.51v96.5c0,35.84-32.66,52.17-63,52.17Z"/><polygon points="918.1 159.65 918.1 80.13 916.17 79.77 884.95 159.65 865.23 159.65 834.02 79.77 832.08 80.13 832.08 159.65 803.57 159.65 803.57 10.98 832.4 10.98 875.09 120.74 917.78 10.98 946.61 10.98 946.61 159.65 918.1 159.65"/><path d="M747.8,159.65l-3.96-12.97.39-.2-5.18-16.05h-63.57l-8.93,29.22h-28.74l51.05-148.67h36.64l51.05,148.67h-28.74ZM684.73,101.92h45.11l-22.67-70.21-22.44,70.21Z"/><path d="M550.62,159.98c-6.33,0-12.64-.45-18.75-1.35-17.05-2.49-32.01-10.68-40.03-21.91-5.5-7.7-7.5-16.34-5.94-25.7h29.37c.76,17.77,19.44,24.11,35.46,24.12h0c8.67,0,17.08-1.8,23.06-4.95,7.24-3.8,11.46-9.91,11.01-15.95-.42-5.69-4.84-10.42-12.13-12.98-7.58-2.66-17.3-3.86-27.59-5.13-24.11-2.98-51.43-6.35-57.12-30.29-3.01-12.67-.82-23.81,6.53-33.1,10.62-13.44,31.79-21.8,55.23-21.8,20.79,0,39.68,6.76,50.53,18.09,7.61,7.94,11.33,17.8,11.05,29.3h-30.66c.05-4.86-1.62-9.12-4.98-12.69-5.59-5.94-15.7-9.48-27.06-9.48s-21.39,3.62-26.22,9.45c-2.94,3.54-3.98,7.72-3.09,12.4,1.91,10.1,24.93,12.76,41.73,14.7,4.37.5,8.15.94,10.5,1.42,21.7,4.46,42.12,11.75,44.58,34.68,1.39,12.99-1.72,23.82-9.24,32.19-10.84,12.06-31.33,18.97-56.23,18.97Z"/><path d="M550.62,360.83c-6.33,0-12.64-.45-18.75-1.35-17.05-2.49-32.01-10.68-40.03-21.91-5.5-7.7-7.5-16.34-5.94-25.7h29.37c.76,17.77,19.44,24.11,35.46,24.12h0c8.67,0,17.08-1.8,23.06-4.95,7.24-3.8,11.46-9.91,11.01-15.95-.42-5.69-4.84-10.42-12.13-12.98-7.58-2.66-17.3-3.86-27.59-5.13-24.11-2.98-51.43-6.35-57.12-30.29-3.01-12.67-.82-23.81,6.53-33.1,10.62-13.44,31.79-21.8,55.23-21.8,20.79,0,39.68,6.76,50.53,18.09,7.61,7.94,11.33,17.8,11.05,29.3h-30.66c.05-4.86-1.62-9.12-4.98-12.69-5.59-5.94-15.7-9.48-27.06-9.48s-21.39,3.62-26.22,9.45c-2.94,3.54-3.98,7.72-3.09,12.4,1.91,10.1,24.93,12.76,41.73,14.7,4.37.5,8.15.94,10.5,1.42,21.7,4.46,42.12,11.75,44.58,34.68,1.39,12.99-1.72,23.82-9.24,32.19-10.84,12.06-31.33,18.97-56.23,18.97Z"/><path d="M376.42,377.64h-30.51c-.38-4.29-.66-8.5-1.14-12.68-2.27-19.77-9.26-37.8-20.24-54.33-11.52-17.34-26.23-31.67-42.4-44.58-20.73-16.55-43.21-30.48-66.22-43.58-26.12-14.88-52.45-29.4-78.52-44.36-22.62-12.98-44.52-27.09-64.8-43.57-18.86-15.32-35.74-32.47-48.75-53.17C10.04,59.39,2.13,35.49.45,9.56.25,6.41.15,3.27,0,0h30.59c.26,3.68.46,7.35.78,11,1.79,20.18,8.49,38.65,19.47,55.61,11,16.96,24.98,31.22,40.74,43.68,9.82,7.77,20.2,14.83,30.33,22.2.42.31.89.55,1.63.99.17-18.11,6.27-33.7,18.96-46.42,12.68-12.72,28.22-18.83,46.49-19.1C178.87,46.4,172.8,24.03,172.91.05h30.59c.16,3.13.28,6.33.51,9.54,1.04,14.16,4.98,27.58,10.64,40.54,6.79,15.54,15.37,30.08,25.44,43.67,18.12,24.42,36.65,48.54,54.91,72.87,17.33,23.08,33.36,47,46.56,72.73,14.42,28.1,24.85,57.55,30.34,88.7,2.78,15.75,4.29,31.63,4.5,47.63,0,.59,0,1.17,0,1.92h0ZM188.16,166.64c18.81.02,34.09-15.17,34.1-33.89,0-18.69-15.12-33.9-33.79-34-18.78-.1-34.14,15.08-34.2,33.79-.06,18.76,15.17,34.08,33.89,34.09ZM219.75,189.24c32.92,18.7,65.07,37.85,93.52,62.61-17.65-34.37-40.95-64.88-64.77-95.47-5.88,14.29-15.36,25.09-28.75,32.86h0Z"/></g></svg>