<?xml version="1.0" encoding="UTF-8"?><svg id="Warstwa_2" xmlns="http://www.w3.org/2000/svg" viewBox="0 0 1114.11 377.69"><g id="Warstwa_1-2"><path d="M345.66,377.69c-.07-.78-.13-1.55-.19-2.32-.23-2.82-.47-5.73-.79-8.58-2.23-19.46-9.15-38.03-20.56-55.21-10.48-15.77-24.09-30.08-42.82-45.04-22.83-18.23-47.52-32.96-66.48-43.76-11.73-6.68-23.69-13.4-35.26-19.9-14.2-7.98-28.89-16.22-43.25-24.46-25.88-14.85-46.38-28.64-64.54-43.38-20.89-16.97-36.7-34.21-48.32-52.68C9.77,60.58,1.99,36.73.36,11.48.22,9.38.14,7.32.05,5.14c-.02-.36-.03-.73-.05-1.09h26.63c.03.48.06.95.09,1.43.17,2.54.34,5.16.57,7.74,1.77,19.97,8.43,38.98,19.78,56.52,10.39,16.02,23.86,30.47,41.17,44.16,6.86,5.43,14.1,10.59,21.1,15.58,3.11,2.21,6.21,4.43,9.3,6.67.36.27.73.48,1.15.72.19.11.39.22.62.36l3,1.79.03-3.49c.17-17.81,6.35-32.96,18.38-45.03,12.15-12.19,26.91-18.25,45.1-18.52l3.1-.05-1.32-2.8c-10.48-22.29-15.68-43.59-15.89-65.04h26.68c.01.27.03.54.04.81.11,2.25.22,4.57.38,6.88.98,13.33,4.51,26.8,10.8,41.19,6.66,15.24,15.29,30.06,25.67,44.06,10.89,14.67,22.11,29.48,32.96,43.8,7.21,9.52,14.67,19.37,21.96,29.08,19.85,26.45,34.59,49.47,46.38,72.45,14.77,28.79,24.92,58.44,30.15,88.13,2.75,15.59,4.25,31.47,4.47,47.2h-26.67ZM217.13,193.28c31.21,17.73,64.04,37.15,92.73,62.12l3.09-2.42c-17.24-33.58-39.63-63.24-64.97-95.78l-2.12-2.72-1.31,3.19c-5.71,13.87-14.84,24.3-27.9,31.89l-6.43,3.73h6.91ZM186.2,98.79c-19.8,0-35.96,16.05-36.02,35.79-.03,9.62,3.7,18.68,10.51,25.52,6.79,6.82,15.8,10.57,25.38,10.58,19.92,0,36.1-16.1,36.1-35.89,0-19.75-16.04-35.9-35.78-36h-.19Z"/><path d="M455.18,157.62c-17.65,0-33.96-5.12-51.26-16.08v-27.82c19.49,15.2,35.05,21.73,51.49,21.73,18.32,0,33.22-11.4,33.22-25.42,0-15.47-16.7-21.04-33.04-24.46-36.7-7.75-51.67-20.22-51.67-43.04,0-25.04,23.34-42.54,56.77-42.54,16.27,0,31.89,4.27,46.44,12.69v27.01c-17.03-12.41-30.49-17.53-45.75-17.53-16.96,0-30.24,9.25-30.24,21.05,0,12.51,11.31,17.26,35.08,22.61,35.75,7.89,50.32,20.03,50.32,41.9,0,13.93-6.22,26.63-17.51,35.75-11.28,9.11-26.85,14.13-43.85,14.13Z"/><path d="M567.21,157.62c-20.63,0-36.8-14.25-36.8-32.44,0-6.84,1.87-12.35,5.72-16.83,7.63-8.94,21.69-13.69,55.71-18.84l9.69-1.47-.46-2.09c-2.16-9.85-12.69-16.72-25.6-16.72-11.08,0-21.84,3.54-34.5,11.42v-21.03c13.77-6.6,26.72-9.81,39.55-9.81,27.79,0,45.75,15.43,45.75,39.32v30.53c0,13.22,2.76,25.12,8.22,35.42h-28.67c-1.99-3.82-2.74-6.62-3.34-12l-.53-4.78-3.01,3.75c-8.53,10.61-18.61,15.55-31.73,15.55ZM601.61,104.37c-32.15,4.25-45.59,8.08-45.59,20.81,0,9.63,8.73,13.94,17.38,13.94,15.33,0,27.85-13.36,30.45-32.49l.35-2.6-2.6.34Z"/><path d="M786.38,155.09v-64.35c0-7.81-5.59-16.23-14.63-16.23-13.63,0-24.73,15.93-24.73,35.52v45.06h-24.47v-61.82c0-10.91-6.01-18.53-14.63-18.53-13.87,0-24.73,16.31-24.73,37.12v43.22h-24.47V52.34h22.81l1.61,16.53h3.42l.58-.99c7.01-11.99,16.78-18.06,29.04-18.06,13.64,0,22.87,6.5,28.22,19.86l1.53,3.84,2.06-3.58c7.66-13.35,18.12-20.12,31.09-20.12,18.99,0,31.75,13.87,31.75,34.5v70.77h-24.47Z"/><path d="M875.52,157.62c-22.51,0-35.42-15.17-35.42-41.62v-63.66h24.47v60.67c0,13.13,7.1,21.28,18.53,21.28,15.86,0,28.17-18.85,28.17-35.06v-46.9h24.47v102.75h-22.9c-.17-4.8-.91-10.52-1.6-14.21l-.82-4.35-2.73,3.49c-9.39,12-19.61,17.6-32.17,17.6Z"/><path d="M1016.02,157.62c-31.19,0-55.62-23.52-55.62-53.56s24.02-54.24,53.56-54.24,51.03,21.61,51.03,53.79v1.9h-79.55l.64,2.5c5.19,20.26,21.85,27.44,34.54,27.44s25.84-4.98,40.24-15.64v23.93c-17.45,9.46-31.72,13.88-44.83,13.88ZM1014.87,67.17c-12.09,0-22.39,7.94-26.24,20.23l-.82,2.6h50.73l-.35-2.3c-2.01-13.33-13.52-20.53-23.33-20.53Z"/><rect x="1089.64" y="2.53" width="24.47" height="152.57"/><path d="M531.86,371.01c-17.65,0-33.96-5.12-51.26-16.08v-27.82c19.49,15.2,35.05,21.73,51.49,21.73,18.32,0,33.22-11.4,33.22-25.42,0-15.47-16.7-21.04-33.04-24.46-36.7-7.75-51.67-20.22-51.67-43.04,0-25.04,23.34-42.54,56.77-42.54,16.27,0,31.89,4.27,46.44,12.69v27.01c-17.03-12.41-30.49-17.53-45.75-17.53-16.96,0-30.24,9.25-30.24,21.05,0,12.51,11.31,17.26,35.08,22.61,35.75,7.89,50.32,20.03,50.32,41.9,0,13.93-6.22,26.63-17.51,35.75-11.28,9.11-26.85,14.13-43.85,14.13Z"/><path d="M647.79,370.09c-19.14,0-29.68-9.97-29.68-28.07v-58.7h-17.68v-17.35h18.62l3.44-32.14h19.16v32.14h29.84v17.35h-28.93v49.29c0,10.32,5.67,16.23,15.54,16.23,4.94,0,9.32-1.25,13.38-2.75v20.83c-7.59,2.11-15.56,3.18-23.71,3.18Z"/><path d="M727.45,371.01c-22.51,0-35.42-15.17-35.42-41.62v-63.66h24.47v60.67c0,13.13,7.1,21.28,18.53,21.28,15.86,0,28.17-18.85,28.17-35.06v-46.9h24.47v102.75h-22.9c-.17-4.8-.91-10.52-1.6-14.21l-.82-4.35-2.73,3.49c-9.39,12-19.61,17.6-32.17,17.6Z"/><path d="M858.07,371.01c-22,0-45.75-19.95-45.75-52.18s22.07-55.62,49.19-55.62c10.72,0,20.08,3.71,29.47,11.69l3.3,2.8v-61.78h24.47v152.57h-22.8l-1.61-18.14h-3.39l-.59.93c-8.38,13.28-18.95,19.73-32.29,19.73ZM867.49,284.46c-17.26,0-29.32,13.28-29.32,32.3,0,16.8,12.02,30.47,26.79,30.47,16.71,0,29.32-15.86,29.32-36.89v-13.68l-.59-.59c-7.7-7.7-16.52-11.61-26.21-11.61Z"/><path d="M950.98,368.48v-102.75h24.47v102.75h-24.47ZM963.22,243.14c-8.28,0-14.76-6.48-14.76-14.76,0-8.7,7.42-14.76,14.07-14.76,7.31,0,15.45,6.06,15.45,14.76,0,8.14-6.62,14.76-14.76,14.76Z"/><path d="M1057.11,371.01c-32.1,0-56.31-23.02-56.31-53.56s24.75-54.24,55.16-54.24c16.63,0,31.65,5.68,42.28,15.99,10.23,9.92,15.86,23.43,15.86,38.02,0,30.16-25.04,53.79-57,53.79ZM1058.03,284.46c-17.21,0-30.7,14.29-30.7,32.53s13.48,32.76,30.7,32.76c16.02,0,29.55-14.79,29.55-32.3,0-15.93-11.87-32.99-29.55-32.99Z"/></g></svg>