<?xml version="1.0" encoding="UTF-8"?><svg id="Warstwa_2" xmlns="http://www.w3.org/2000/svg" viewBox="0 0 159.36 159.35"><defs><style>.cls-1{fill:#fff;}</style></defs><g id="Warstwa_1-2"><path class="cls-1" d="M159.36,79.68c0,44-35.68,79.67-79.68,79.67S0,123.68,0,79.68,35.68,0,79.68,0s79.68,35.67,79.68,79.68Z"/><path d="M125.28,125.09c.23-17.25-6.85-32.37-16.19-46.32-9.6-14.34-23.99-26.24-25.95-44.52h-6.84l2.98,16.83c-8.39-.65-14.81,7.02-15.01,15-11.23-6.69-22.36-17.7-21.99-31.83h-8.21c.64,30.63,35.5,42.6,57.13,56.42,12.5,7.99,26.84,17.71,26.08,34.42h8.01ZM80.01,74.34c-4.47,0-8.09-3.62-8.09-8.09s3.62-8.09,8.09-8.09,8.09,3.62,8.09,8.09-3.62,8.09-8.09,8.09ZM88.3,79.59c2.75-1.73,5.04-4.27,6-7.49l7.21,9.27,6.77,11.72-19.97-13.5Z"/></g></svg>