<?xml version="1.0" encoding="UTF-8"?><svg id="Warstwa_2" xmlns="http://www.w3.org/2000/svg" viewBox="0 0 118.21 82.03"><defs><style>.cls-1{fill:#fff;}</style></defs><g id="Warstwa_1-2"><path class="cls-1" d="M53.95.05c9.96-.19,20.15.17,30.07.92,4.87.36,10.4.74,15.2,1.46,11.69,1.76,14.43,6.87,16.88,17.73,2.84,12.58,2.82,29.28-.03,41.85s-6.37,16.45-19.55,17.94c-24.46,2.77-50.34,2.78-74.82,0-13.17-1.49-16.67-5.25-19.55-17.94s-2.86-29.36,0-41.98S8.52,3.59,21.7,2.09C32.22.89,43.35.25,53.95.05ZM49.01,57.84l30.44-16.9-30.44-16.74v33.65Z"/></g></svg>