<?xml version="1.0" encoding="UTF-8"?>
<svg id="Warstwa_1" xmlns="http://www.w3.org/2000/svg" version="1.1" viewBox="0 0 55.2 38.4">
  <!-- Generator: Adobe Illustrator 29.6.1, SVG Export Plug-In . SVG Version: 2.1.1 Build 9)  -->
  <defs>
    <style>
      .st0 {
        fill: #fff;
      }

      .st1 {
        fill: #dc143c;
      }
    </style>
  </defs>
  <path class="st1" d="M55.2,19.3v15.3c0,.8-.2,1.5-.6,2.1-.7,1-1.8,1.7-3.2,1.7H3.8c-1.4,0-2.6-.7-3.2-1.8-.3-.4-.5-.9-.5-1.4,0-.2,0-.3,0-.5v-15.3h55.2Z"/>
  <path class="st0" d="M55.2,3.8v15.6H0V3.8c0-.7.2-1.3.5-1.8C1.1.8,2.3,0,3.8,0h47.6c1.5,0,2.7.8,3.4,2,.2.4.3.8.4,1.2,0,.2,0,.4,0,.6Z"/>
</svg>