<?xml version="1.0" encoding="UTF-8"?>
<svg id="Warstwa_1" xmlns="http://www.w3.org/2000/svg" version="1.1" viewBox="0 0 55.2 38.4">
  <!-- Generator: Adobe Illustrator 29.6.1, SVG Export Plug-In . SVG Version: 2.1.1 Build 9)  -->
  <defs>
    <style>
      .st0 {
        fill: #fff;
      }

      .st1 {
        fill: #012169;
      }

      .st2 {
        fill: #c8102e;
      }
    </style>
  </defs>
  <path class="st1" d="M55.2,3.8v30.8c0,.8-.2,1.5-.6,2.1-.7,1-1.8,1.7-3.2,1.7H3.8c-1.4,0-2.6-.7-3.2-1.8-.3-.4-.5-.9-.5-1.4,0-.2,0-.3,0-.5V3.8c0-.7.2-1.3.5-1.8C1.1.8,2.3,0,3.8,0h47.6c1.5,0,2.7.8,3.4,2,.2.4.3.8.4,1.2,0,.2,0,.4,0,.6Z"/>
  <path class="st0" d="M55.2,29.4v5.2c0,.8-.2,1.5-.6,2.1l-23.2-11.8-3.6-1.8h-.2c0-.1-1.5-.9-1.5-.9l-1.3-.6-1-.5-3.4-1.8-7.5-3.8L0,8.8V3.8C0,3.1.2,2.5.5,2l23.3,11.6,3.5,1.7.4.2,1.4.7,2.4,1.2.3.2,3.1,1.6,7.7,3.8,12.7,6.3Z"/>
  <path class="st0" d="M55.2,3.8v5.1l-12.8,6.5-7.6,3.8-1.3.7h0l-2.1,1.1-1.7.8-2.2,1.1h-.2c0,.1-3.6,1.9-3.6,1.9L.6,36.6c-.3-.4-.5-.9-.5-1.4,0-.2,0-.3,0-.5v-5.3l12.6-6.3,7.7-3.8,1.5-.8,1.9-.9h0s3.9-2,3.9-2l.4-.2,3.4-1.7L54.8,2c.2.4.3.8.4,1.2,0,.2,0,.4,0,.6Z"/>
  <path class="st2" d="M27.7,19.6c-.4.4-.7.8-1,1.3l-3-1.5-1.9-1-6.1-3.1L0,7.5v-2.2l19.5,10.1,4.2,2.2h0s4,2.1,4,2.1Z"/>
  <polygon class="st2" points="55.2 31 55.2 33 35.5 23 34.9 22.8 31.4 22.6 29.6 22.5 29.7 21.8 30.1 20 30.1 20 30.4 18.2 31.1 18.6 31.4 18.8 33.5 19.9 33.6 19.9 39.7 23 55.2 31"/>
  <path class="st2" d="M27.4,21.4l-1.4.7-1.8.9-.5.3L0,35.1c0-.2,0-.3,0-.5v-1.7l19.8-9.9,3.2-1.6c0,.1.3.2.7.2.3,0,.7,0,1,0,1.2-.1,2.5-.3,2.6,0Z"/>
  <path class="st2" d="M55.2,3.2c0,.2,0,.4,0,.6v1.6l-19.9,9.9-3,1.5-.5.8-.3.5-.3.5-1,1.4-.6.9-3.2-3.2,2.8-1.4,1.9-.9.5-.2L55.2,3.2Z"/>
  <g>
    <rect class="st2" x="22.4" width="10.3" height="38.4"/>
    <path class="st0" d="M31.4,0v38.4h2.6V0h-2.6ZM21.1,0v38.4h2.6V0h-2.6Z"/>
  </g>
  <g>
    <rect class="st2" y="14.1" width="55.2" height="10.3"/>
    <path class="st0" d="M0,12.8v2.6h55.2v-2.6H0ZM0,23v2.6h55.2v-2.6H0Z"/>
  </g>
  <rect class="st2" x="23.7" width="7.7" height="38.4"/>
</svg>