<?xml version="1.0" encoding="UTF-8"?><svg id="Warstwa_2" xmlns="http://www.w3.org/2000/svg" viewBox="0 0 126.24 90.03"><defs><style>.cls-1{fill:#fff;}</style></defs><g id="Warstwa_1-2"><path class="cls-1" d="M120.11,24.16c-2.45-10.86-5.19-15.97-16.88-17.73-4.8-.72-10.32-1.1-15.2-1.46-8.17-.62-16.53-.97-24.79-.97-1.77,0-3.53.02-5.28.05-10.59.2-21.73.84-32.25,2.04-13.18,1.5-16.67,5.23-19.55,17.94-2.86,12.62-2.86,29.36,0,41.98,2.88,12.69,6.38,16.45,19.55,17.94,12.24,1.39,24.82,2.08,37.41,2.08s25.18-.69,37.41-2.08c13.18-1.49,16.67-5.24,19.55-17.94,2.85-12.57,2.86-29.27.03-41.85ZM53.03,61.84V28.2l30.44,16.74-30.44,16.9Z"/><path d="M124.01,23.28c-2.75-12.2-6.63-18.77-20.18-20.81-4.56-.68-9.74-1.07-14.31-1.4l-1.19-.09c-8.68-.65-17.12-.98-25.09-.98-1.8,0-3.6.02-5.36.05-11.44.22-22.72.93-32.62,2.06C10.74,3.77,5.58,8.49,2.26,23.14c-3.01,13.29-3.01,30.46,0,43.75,3.32,14.67,8.48,19.39,23,21.03,12.33,1.4,25.06,2.11,37.86,2.11s25.53-.71,37.86-2.11c14.51-1.64,19.67-6.36,23-21.03,3-13.25,3.02-30.37.03-43.61ZM120.08,66.01c-2.88,12.7-6.37,16.45-19.55,17.94-12.23,1.39-24.82,2.08-37.41,2.08s-25.17-.69-37.41-2.08c-13.17-1.49-16.67-5.25-19.55-17.94-2.86-12.62-2.86-29.36,0-41.98C9.04,11.32,12.53,7.59,25.71,6.09c10.52-1.2,21.66-1.84,32.25-2.04,1.75-.03,3.51-.05,5.28-.05,8.26,0,16.62.35,24.79.97,4.88.36,10.4.74,15.2,1.46,11.69,1.76,14.43,6.87,16.88,17.73,2.83,12.58,2.82,29.28-.03,41.85Z"/><path d="M53.03,28.2v33.64l30.44-16.9-30.44-16.74ZM57.03,34.96l18.17,10-18.17,10.08v-20.08Z"/></g></svg>