<?xml version="1.0" encoding="UTF-8"?><svg id="Warstwa_2" xmlns="http://www.w3.org/2000/svg" viewBox="0 0 128.62 128.24"><defs><style>.cls-1{fill:#fff;}</style></defs><g id="Warstwa_1-2"><path class="cls-1" d="M124.38,38.95c-.86-18.52-15.1-33.57-33.67-34.95l-53.29.05C19.67,5.25,5.15,19.96,4,37.68v52.87c1.12,17.73,15.64,32.4,33.36,33.69h53.81c18.61-1.74,32.45-16.64,33.22-35.27-.58-16.52.76-33.55-.01-50.02ZM113.03,88.97c-.68,13.59-11.07,23.43-24.53,24.06-3.71.18-7.44.24-11.2.24-9.37,0-18.85-.39-28.23-.39-3.07,0-6.14.04-9.18.15-12.06-.19-22.5-9.2-24.33-21.11-.46-17.99-.07-36.05-.2-54.07,1.12-11.87,10.76-21.46,22.64-22.49h52.38c5.7.6,11.28,3.11,15.33,7.16,4.44,4.43,7.01,10.46,7.32,16.74.82,16.32-.64,33.32,0,49.71Z"/><path d="M128.38,38.77c-.46-9.96-4.48-19.37-11.31-26.49C110.2,5.11,100.94.75,91,.01h-.15s-.15-.01-.15-.01l-53.29.05h-.26c-9.54.65-18.6,4.84-25.51,11.8C4.76,18.8.62,27.88,0,37.42v53.38c.61,9.55,4.73,18.63,11.61,25.58,6.88,6.95,15.93,11.15,25.46,11.84l.15.02h53.95s.19-.01.19-.01l.18-.02c20.49-1.91,35.99-18.34,36.85-39.07v-.31c-.28-7.78-.11-15.87.04-23.69.17-8.67.35-17.64-.05-26.37ZM124.39,88.97c-.77,18.63-14.61,33.53-33.22,35.26h-53.81c-17.72-1.28-32.24-15.95-33.36-33.68v-52.87C5.15,19.96,19.67,5.25,37.42,4.05l53.29-.05c18.57,1.38,32.81,16.43,33.67,34.95.77,16.47-.57,33.5.01,50.02Z"/><path class="cls-1" d="M64.64,34.5c-16.37,0-29.63,13.26-29.63,29.63s13.26,29.64,29.63,29.64,29.64-13.27,29.64-29.64-13.27-29.63-29.64-29.63ZM64.64,83.1c-10.47,0-18.97-8.5-18.97-18.97s8.5-18.97,18.97-18.97,18.97,8.49,18.97,18.97-8.49,18.97-18.97,18.97Z"/><path d="M87.31,39.3c.57.75,1.25,1.43,2.01,2.01-.64-.7-1.31-1.37-2.01-2.01Z"/><path class="cls-1" d="M103.08,32.51c0,3.9-3.16,7.06-7.06,7.06s-7.06-3.16-7.06-7.06,3.16-7.07,7.06-7.07,7.06,3.17,7.06,7.07Z"/><path d="M87.31,39.3c.57.75,1.25,1.43,2.01,2.01-.64-.7-1.31-1.37-2.01-2.01Z"/><path d="M113.03,39.26c-.31-6.28-2.88-12.31-7.32-16.74-4.05-4.05-9.63-6.56-15.33-7.15h-52.38c-11.88,1.02-21.52,10.61-22.64,22.48.13,18.02-.26,36.08.2,54.07,1.83,11.91,12.27,20.92,24.33,21.11,3.04-.11,6.11-.15,9.18-.15,9.38,0,18.86.39,28.23.39,3.76,0,7.49-.06,11.2-.24,13.46-.63,23.85-10.47,24.53-24.06-.64-16.39.82-33.39,0-49.71ZM103.08,32.51c0,3.9-3.16,7.06-7.06,7.06s-7.06-3.16-7.06-7.06,3.16-7.07,7.06-7.07,7.06,3.17,7.06,7.07ZM109.08,65.05c-.17,7.86-.35,15.98-.05,23.89-.65,11.3-9.15,19.56-20.72,20.1-3.32.15-6.92.23-11.01.23-4.64,0-9.41-.1-14.03-.19-4.65-.1-9.47-.2-14.2-.2-3.36,0-6.38.05-9.22.15-10-.21-18.67-7.69-20.3-17.48-.28-11.06-.23-22.36-.19-33.29.02-6.63.05-13.48.01-20.23,1.01-9.76,9.05-17.74,18.81-18.67h51.98c2.58.3,5.1,1.05,7.37,2.19-.49-.07-1-.11-1.51-.11-6.1,0-11.06,4.97-11.06,11.07,0,2.53.86,4.87,2.29,6.74t.03.02l.03.03c.7.64,1.37,1.31,2.01,2.01,0,0,.01,0,.01.01,1.86,1.41,4.17,2.25,6.69,2.25,6.1,0,11.06-4.96,11.06-11.06,0-.42-.02-.84-.08-1.25,1.19,2.53,1.89,5.31,2.04,8.2.42,8.36.23,17.12.04,25.59Z"/><path d="M89.33,41.32s-.01-.01-.01-.01c-.76-.58-1.44-1.26-2.01-2.01l-.03-.03s-.02,0-.03-.02c-5.98-5.44-13.91-8.75-22.61-8.75-18.54,0-33.63,15.08-33.63,33.63s15.09,33.64,33.63,33.64,33.64-15.09,33.64-33.64c0-8.8-3.39-16.81-8.95-22.81ZM64.64,93.77c-16.37,0-29.63-13.27-29.63-29.64s13.26-29.63,29.63-29.63,29.64,13.26,29.64,29.63-13.27,29.64-29.64,29.64Z"/><path d="M64.64,45.16c-10.47,0-18.97,8.49-18.97,18.97s8.5,18.97,18.97,18.97,18.97-8.5,18.97-18.97-8.49-18.97-18.97-18.97ZM64.64,79.1c-8.25,0-14.97-6.72-14.97-14.97s6.72-14.97,14.97-14.97,14.97,6.72,14.97,14.97-6.72,14.97-14.97,14.97Z"/></g></svg>