<?xml version="1.0" encoding="UTF-8"?><svg id="Warstwa_2" xmlns="http://www.w3.org/2000/svg" viewBox="0 0 128.63 128.51"><defs><style>.cls-1{fill:#fff;}</style></defs><g id="Warstwa_1-2"><path class="cls-1" d="M124.63,71.92v52.59h-24.85v-44.12c-.36-8.81-3.92-16.1-13.51-16.1-.23,0-.47,0-.71.01-9.59.35-13.97,7.3-14.38,16.25v43.96s-23.94,0-23.94,0V44.1h23.95v10.59c3.83-5.83,9.57-10.21,16.35-12.03,2.54-.69,5.3-1.03,8.09-1.03,6.87,0,14.03,2.07,19.02,6.3,7.05,5.98,9.67,14.97,9.98,23.99Z"/><path d="M117.23,44.88c-5.44-4.61-13.31-7.25-21.59-7.25h0c-3.18,0-6.25.39-9.13,1.17-4.11,1.1-7.95,3.05-11.31,5.69v-4.39h-31.95v88.41h31.95v-47.86c.26-5.49,2.31-12.05,10.52-12.35.19-.01.38-.01.56-.01,2.46,0,8.98,0,9.51,12.19v48.03h32.85v-56.73c-.41-11.62-4.35-20.93-11.4-26.9ZM124.63,124.51h-24.85v-44.12c-.36-8.81-3.92-16.1-13.51-16.1-.23,0-.47,0-.71.01-9.59.35-13.97,7.3-14.38,16.25v43.96s-23.94,0-23.94,0V44.1h23.95v10.59c3.83-5.83,9.57-10.21,16.35-12.03,2.54-.69,5.3-1.03,8.09-1.03,6.87,0,14.03,2.07,19.02,6.3,7.05,5.98,9.67,14.97,9.98,23.99v52.59Z"/><rect class="cls-1" x="6.42" y="44.1" width="25.01" height="80.41"/><path d="M2.42,40.1v88.41h33.01V40.1H2.42ZM31.43,124.51H6.42V44.1h25.01v80.41Z"/><path class="cls-1" d="M33.61,18.8c0,8.17-6.63,14.8-14.8,14.8s-14.81-6.63-14.81-14.8,6.63-14.8,14.81-14.8,14.8,6.62,14.8,14.8Z"/><path d="M18.81,0C8.44,0,0,8.43,0,18.8s8.44,18.8,18.81,18.8,18.8-8.43,18.8-18.8S29.18,0,18.81,0ZM18.81,33.6c-8.18,0-14.81-6.63-14.81-14.8s6.63-14.8,14.81-14.8,14.8,6.62,14.8,14.8-6.63,14.8-14.8,14.8Z"/></g></svg>