<?xml version="1.0" encoding="UTF-8"?><svg id="Warstwa_2" xmlns="http://www.w3.org/2000/svg" viewBox="0 0 151.47 151.47"><defs><style>.cls-1{fill:#fff;}.cls-2{fill:#0083ad;}.cls-3{fill:#fbb718;}</style></defs><g id="Warstwa_1-2"><path class="cls-1" d="M150.97,75.74C150.97,34.18,117.29.5,75.74.5S.5,34.18.5,75.74s33.68,75.24,75.24,75.24,75.24-33.68,75.24-75.24Z"/><path class="cls-2" d="M75.74,150.47C34.53,150.47,1,116.95,1,75.74S34.53,1,75.74,1s74.74,33.53,74.74,74.74-33.53,74.74-74.74,74.74ZM122.73,48.79c.46,21.4-8.36,37.88-24.85,46.42-1.87.97-3.92,1.69-6.1,2.46-2.75.97-5.59,1.96-8.01,3.5-8.67,5.5-13.61,19.18-14.54,29.57l-.04.49.49.05c1.93.2,3.89.3,5.81.3,20.08,0,38.82-11.2,48.92-29.22,9.64-17.2,9.36-37.33-.75-53.83l-.97-1.58.04,1.85ZM26.58,51.3c-1.53.44-2.46,2.98-3.21,5.32l-.15.46c-6.37,19.21-2.87,38.91,9.61,54.02,1.34,1.62,12.95,13.44,17.11,13.45h0c.46,0,.84-.14,1.13-.41l.13-.13.02-.18c1.66-15.19,10.48-31.02,21.45-38.48,3.49-2.37,6.98-3.67,10.36-4.92,5.88-2.18,11.42-4.24,16.54-11.43,6.56-9.21,7.54-19.39,2.76-28.65-5.22-10.12-16.72-17.18-27.99-17.18-9.48,0-17.73,4.84-23.24,13.64-2.12,3.38-2.99,7.53-3.82,11.54-1.46,7-2.73,13.05-10.2,13.05-.57,0-1.19-.04-1.83-.11-5.66-.63-6.91-4.39-8.06-9.63l-.11-.52-.51.15Z"/><path d="M75.74,1.5c40.93,0,74.24,33.3,74.24,74.24s-33.3,74.24-74.24,74.24S1.5,116.67,1.5,75.74,34.8,1.5,75.74,1.5M37.09,60.91c-.56,0-1.15-.04-1.77-.1-5.34-.6-6.49-4.04-7.63-9.24l-.23-1.04-1.02.29c-1.77.51-2.72,3.07-3.55,5.65l-.15.46c-6.43,19.38-2.89,39.25,9.7,54.5.87,1.06,12.92,13.63,17.49,13.63.74,0,1.21-.3,1.47-.55l.26-.25.04-.36c1.65-15.06,10.38-30.73,21.24-38.12,3.44-2.34,6.9-3.62,10.25-4.87,5.69-2.11,11.57-4.3,16.77-11.61,6.67-9.37,7.67-19.73,2.8-29.16-5.3-10.27-16.99-17.45-28.44-17.45-9.65,0-18.06,4.93-23.66,13.87-2.17,3.46-3.04,7.65-3.89,11.7-1.64,7.85-2.99,12.65-9.71,12.65M75.49,132.07c20.26,0,39.17-11.3,49.35-29.48,9.73-17.36,9.44-37.67-.76-54.34l-1.93-3.15.08,3.7c.22,10.19-1.63,19.24-5.49,26.9-4.16,8.25-10.58,14.66-19.09,19.06-1.84.95-3.88,1.67-6.04,2.43-2.77.98-5.64,1.98-8.11,3.55-8.81,5.59-13.83,19.44-14.77,29.94l-.09.98.98.1c1.95.2,3.92.31,5.87.31M75.74.5C34.18.5.5,34.18.5,75.74s33.68,75.24,75.24,75.24,75.24-33.68,75.24-75.24S117.29.5,75.74.5h0ZM37.09,61.91c12.28,0,8.67-15.6,14.44-24.83,5.94-9.49,14.39-13.41,22.81-13.4,20.37,0,40.58,22.89,24.82,45.04-8.01,11.26-17.29,9.78-26.77,16.23-11.87,8.08-20.13,24.73-21.67,38.84-.19.19-.46.27-.78.27-3.67,0-14.89-11.04-16.72-13.26-12.51-15.14-15.72-34.87-9.52-53.55.48-1.43,1.47-5.01,3.02-5.46,1.17,5.31,2.48,9.34,8.49,10.02.67.07,1.29.11,1.88.11h0ZM75.49,131.07c-1.9,0-3.82-.1-5.76-.3.88-9.91,5.6-23.66,14.31-29.19,4.21-2.67,9.73-3.68,14.07-5.93,18.13-9.38,25.55-26.99,25.12-46.87,22.41,36.58-6.89,82.29-47.74,82.29h0Z"/><path class="cls-3" d="M50.73,123.78c-2.4,2.29-15.51-10.58-17.51-12.99-12.51-15.14-15.72-34.87-9.52-53.55.48-1.43,1.47-5.01,3.02-5.46,1.17,5.31,2.48,9.34,8.49,10.02,14.53,1.62,10.28-15.05,16.33-24.72,20.32-32.45,69.91.32,47.63,31.63-8.01,11.26-17.29,9.78-26.77,16.23-11.87,8.08-20.13,24.73-21.67,38.84ZM85.86,50.96c0-5.59-4.53-10.12-10.12-10.12s-10.12,4.53-10.12,10.12,4.53,10.12,10.12,10.12,10.12-4.53,10.12-10.12Z"/><path class="cls-3" d="M69.73,130.77c.88-9.91,5.6-23.66,14.31-29.19,4.21-2.67,9.73-3.68,14.07-5.93,18.13-9.38,25.55-26.99,25.12-46.87,23.45,38.28-9.73,86.56-53.5,81.99Z"/><path class="cls-2" d="M75.74,60.57c-5.3,0-9.62-4.31-9.62-9.62s4.31-9.62,9.62-9.62,9.62,4.31,9.62,9.62-4.31,9.62-9.62,9.62Z"/><path d="M75.74,41.84c5.03,0,9.12,4.09,9.12,9.12s-4.09,9.12-9.12,9.12-9.12-4.09-9.12-9.12,4.09-9.12,9.12-9.12M75.74,40.84c-5.59,0-10.12,4.53-10.12,10.12s4.53,10.12,10.12,10.12,10.12-4.53,10.12-10.12-4.53-10.12-10.12-10.12h0Z"/></g></svg>